<svg width="18" height="14" viewBox="0 0 18 14" fill="none" xmlns="http://www.w3.org/2000/svg">
	<path
		d="M18 7.00028C18 6.54862 17.6334 6.18206 17.1818 6.18206L2.72337 6.18206L6.93356 1.83604C7.08371 1.67772 7.15857 1.47521 7.15857 1.2727C7.15857 1.05628 7.07307 0.840268 6.90411 0.679079C6.57641 0.367745 6.05848 0.381248 5.74714 0.708945L0.224114 6.43653C-0.0753555 6.75195 -0.0753555 7.2478 0.224114 7.56363L5.74714 13.2912C6.05848 13.6189 6.57641 13.632 6.90411 13.3211C7.23099 13.0097 7.24449 12.4918 6.93356 12.1641L2.72337 7.8185L17.1818 7.8185C17.6334 7.8185 18 7.45194 18 7.00028Z"
		fill="black" />
</svg>