<?xml version="1.0" encoding="iso-8859-1"?>
<!-- Generator: Adobe Illustrator 19.0.0, SVG Export Plug-In . SVG Version: 6.00 Build 0)  -->
<svg version="1.1" id="Layer_1" xmlns="http://www.w3.org/2000/svg" xmlns:xlink="http://www.w3.org/1999/xlink" x="0px"
  y="0px" viewBox="0 0 512 512" style="enable-background:new 0 0 512 512;" xml:space="preserve">
  <g>
    <g>
      <rect x="133.565" y="33.391" width="244.87" height="33.391" />
    </g>
  </g>
  <g>
    <g>
      <rect x="66.783" y="100.174" width="33.391" height="33.391" />
    </g>
  </g>
  <g>
    <g>
      <polygon points="445.217,133.565 445.217,233.739 66.783,233.739 66.783,133.565 33.391,133.565 33.391,267.13 478.609,267.13 
			478.609,133.565 		" />
    </g>
  </g>
  <g>
    <g>
      <rect x="411.826" y="100.174" width="33.391" height="33.391" />
    </g>
  </g>
  <g>
    <g>
      <rect x="378.435" y="66.783" width="33.391" height="33.391" />
    </g>
  </g>
  <g>
    <g>
      <rect x="166.957" y="100.174" width="33.391" height="33.391" />
    </g>
  </g>
  <g>
    <g>
      <rect x="233.739" y="111.304" width="33.391" height="33.391" />
    </g>
  </g>
  <g>
    <g>
      <rect x="300.522" y="100.174" width="33.391" height="33.391" />
    </g>
  </g>
  <g>
    <g>
      <polygon points="33.391,345.043 33.391,445.217 66.783,445.217 66.783,378.435 445.217,378.435 445.217,445.217 478.609,445.217 
			478.609,345.043 		" />
    </g>
  </g>
  <g>
    <g>
      <rect x="478.609" y="267.13" width="33.391" height="77.913" />
    </g>
  </g>
  <g>
    <g>
      <rect y="267.13" width="33.391" height="77.913" />
    </g>
  </g>
  <g>
    <g>
      <rect x="66.783" y="445.217" width="378.435" height="33.391" />
    </g>
  </g>
  <g>
    <g>
      <rect x="100.174" y="66.783" width="33.391" height="33.391" />
    </g>
  </g>
  <g>
  </g>
  <g>
  </g>
  <g>
  </g>
  <g>
  </g>
  <g>
  </g>
  <g>
  </g>
  <g>
  </g>
  <g>
  </g>
  <g>
  </g>
  <g>
  </g>
  <g>
  </g>
  <g>
  </g>
  <g>
  </g>
  <g>
  </g>
  <g>
  </g>
</svg>